<?xml version="1.0" encoding="iso-8859-1"?>
<!-- Generator: Adobe Illustrator 19.0.0, SVG Export Plug-In . SVG Version: 6.00 Build 0)  -->
<svg version="1.1" id="Layer_1" xmlns="http://www.w3.org/2000/svg" xmlns:xlink="http://www.w3.org/1999/xlink" x="0px" y="0px"
	 viewBox="0 0 512 512" style="enable-background:new 0 0 512 512;" xml:space="preserve">
<g>
	<rect x="294.113" y="293.365" style="fill:#F9DCA4;" width="13.345" height="197.61"/>
	<polygon style="fill:#F9DCA4;" points="174.965,477.414 161.843,479.827 126.136,285.553 121.621,260.977 134.743,258.564 
		139.358,283.707 139.369,283.707 	"/>
	<polygon style="fill:#F9DCA4;" points="465.665,231.919 461.672,256.217 423.462,488.623 410.296,486.466 448.528,253.838 
		452.487,229.751 	"/>
</g>
<path style="fill:#E7C080;" d="M452.487,229.751l-3.959,24.087l13.144,2.38l3.992-24.298L452.487,229.751z"/>
<path style="fill:#53C489;" d="M443.812,167.144l-11.761,64.899l46.953,8.508l11.761-64.899L443.812,167.144z M365.173,219.923
	l20.746,3.76l37.037-60.318l-71.146-12.893L365.173,219.923z M272.361,203.104l46.953,8.508l11.761-64.899l-46.953-8.508
	L272.361,203.104z"/>
<path style="fill:#F7C957;" d="M446.752,46.648l-56.118,91.895l-20.04-105.696l-65.238-11.822l-21.234,117.18l46.953,8.508
	l9.708-53.573l11.027,57.33l71.146,12.893l30.565-49.794l-9.708,53.573l46.954,8.508L512,58.471L446.752,46.648z"/>
<path style="fill:#E7C080;" d="M134.743,258.564l-13.122,2.413l4.515,24.576l13.222-1.846L134.743,258.564z"/>
<path style="fill:#EC589B;" d="M177.228,192.119l9.14,65.319l47.257-6.612l-9.14-65.319L177.228,192.119z M119.056,266.857
	l20.881-2.921l16.3-68.879l-71.608,10.02L119.056,266.857z M25.644,279.928l47.257-6.612l-9.14-65.319l-47.257,6.612L25.644,279.928
	z"/>
<path style="fill:#EAA0E3;" d="M142.311,76.757l-24.541,104.84l-52.11-94.114L0,96.67l16.503,117.94l47.257-6.612l-7.545-53.921
	l28.415,50.999l71.608-10.02l13.446-56.858l7.545,53.921l47.257-6.612l-16.503-117.94L142.311,76.757z"/>
<path style="fill:#EC589B;" d="M399.556,204.325h-48.552c0-30.248-19.694-53.545-50.22-53.545
	c-30.792,0-50.487,23.297-50.487,53.545h-48.552c0-56.325,42.447-95.714,99.038-95.714C357.387,108.612,399.556,148,399.556,204.325
	z"/>
<path style="fill:#E7C080;" d="M307.454,293.36v27.99c-2.202,0.122-4.426,0.189-6.672,0.189s-4.47-0.067-6.672-0.189v-27.99H307.454
	z"/>
<path style="fill:#F7C957;" d="M201.746,204.325h48.552c0,29.958,19.694,53.545,50.487,53.545c30.526,0,50.22-23.586,50.22-53.545
	h48.552c0,56.314-42.169,95.714-98.772,95.714C244.192,300.039,201.746,260.639,201.746,204.325z"/>
<g>
</g>
<g>
</g>
<g>
</g>
<g>
</g>
<g>
</g>
<g>
</g>
<g>
</g>
<g>
</g>
<g>
</g>
<g>
</g>
<g>
</g>
<g>
</g>
<g>
</g>
<g>
</g>
<g>
</g>
</svg>
